<?xml version="1.0" encoding="UTF-8" standalone="no"?><svg xmlns="http://www.w3.org/2000/svg" xmlns:xlink="http://www.w3.org/1999/xlink" contentStyleType="text/css" height="507px" preserveAspectRatio="none" style="width:1194px;height:507px;background:#FFFFFF;" version="1.1" viewBox="0 0 1194 507" width="1194px" zoomAndPan="magnify"><defs/><g><!--MD5=[3fd616f346a44cd59a91eb10b19e157c]
class User--><g id="elem_User"><rect codeLine="1" fill="#F1F1F1" height="129.4844" id="User" rx="2.5" ry="2.5" style="stroke:#181818;stroke-width:0.5;" width="142" x="414" y="7"/><ellipse cx="464.75" cy="23" fill="#ADD1B2" rx="11" ry="11" style="stroke:#181818;stroke-width:1.0;"/><path d="M467.7188,28.6406 Q467.1406,28.9375 466.5,29.0781 Q465.8594,29.2344 465.1563,29.2344 Q462.6563,29.2344 461.3281,27.5938 Q460.0156,25.9375 460.0156,22.8125 Q460.0156,19.6875 461.3281,18.0313 Q462.6563,16.375 465.1563,16.375 Q465.8594,16.375 466.5,16.5313 Q467.1563,16.6875 467.7188,16.9844 L467.7188,19.7031 Q467.0938,19.125 466.5,18.8594 Q465.9063,18.5781 465.2813,18.5781 Q463.9375,18.5781 463.25,19.6563 Q462.5625,20.7188 462.5625,22.8125 Q462.5625,24.9063 463.25,25.9844 Q463.9375,27.0469 465.2813,27.0469 Q465.9063,27.0469 466.5,26.7813 Q467.0938,26.5 467.7188,25.9219 L467.7188,28.6406 Z " fill="#000000"/><text fill="#000000" font-family="sans-serif" font-size="14" lengthAdjust="spacing" textLength="32" x="485.25" y="27.8467">User</text><line style="stroke:#181818;stroke-width:0.5;" x1="415" x2="555" y1="39" y2="39"/><rect fill="none" height="6" style="stroke:#C82930;stroke-width:1.0;" width="6" x="422" y="49.6484"/><text fill="#000000" font-family="sans-serif" font-size="14" lengthAdjust="spacing" textLength="55" x="434" y="55.9951">id: UUID</text><rect fill="none" height="6" style="stroke:#C82930;stroke-width:1.0;" width="6" x="422" y="65.9453"/><text fill="#000000" font-family="sans-serif" font-size="14" lengthAdjust="spacing" textLength="114" x="434" y="72.292">firstName: String</text><rect fill="none" height="6" style="stroke:#C82930;stroke-width:1.0;" width="6" x="422" y="82.2422"/><text fill="#000000" font-family="sans-serif" font-size="14" lengthAdjust="spacing" textLength="113" x="434" y="88.5889">lastName: String</text><rect fill="none" height="6" style="stroke:#C82930;stroke-width:1.0;" width="6" x="422" y="98.5391"/><text fill="#000000" font-family="sans-serif" font-size="14" lengthAdjust="spacing" textLength="85" x="434" y="104.8857">email: String</text><rect fill="none" height="6" style="stroke:#C82930;stroke-width:1.0;" width="6" x="422" y="114.8359"/><text fill="#000000" font-family="sans-serif" font-size="14" lengthAdjust="spacing" textLength="116" x="434" y="121.1826">password: String</text><line style="stroke:#181818;stroke-width:0.5;" x1="415" x2="555" y1="128.4844" y2="128.4844"/></g><!--MD5=[3b67181cff55c44d048f4f121abee1a0]
class Friendship--><g id="elem_Friendship"><rect codeLine="9" fill="#F1F1F1" height="80.5938" id="Friendship" rx="2.5" ry="2.5" style="stroke:#181818;stroke-width:0.5;" width="118" x="7" y="221"/><ellipse cx="28.3" cy="237" fill="#ADD1B2" rx="11" ry="11" style="stroke:#181818;stroke-width:1.0;"/><path d="M31.2688,242.6406 Q30.6906,242.9375 30.05,243.0781 Q29.4094,243.2344 28.7063,243.2344 Q26.2063,243.2344 24.8781,241.5938 Q23.5656,239.9375 23.5656,236.8125 Q23.5656,233.6875 24.8781,232.0313 Q26.2063,230.375 28.7063,230.375 Q29.4094,230.375 30.05,230.5313 Q30.7063,230.6875 31.2688,230.9844 L31.2688,233.7031 Q30.6438,233.125 30.05,232.8594 Q29.4563,232.5781 28.8313,232.5781 Q27.4875,232.5781 26.8,233.6563 Q26.1125,234.7188 26.1125,236.8125 Q26.1125,238.9063 26.8,239.9844 Q27.4875,241.0469 28.8313,241.0469 Q29.4563,241.0469 30.05,240.7813 Q30.6438,240.5 31.2688,239.9219 L31.2688,242.6406 Z " fill="#000000"/><text fill="#000000" font-family="sans-serif" font-size="14" lengthAdjust="spacing" textLength="72" x="43.7" y="241.8467">Friendship</text><line style="stroke:#181818;stroke-width:0.5;" x1="8" x2="124" y1="253" y2="253"/><rect fill="none" height="6" style="stroke:#C82930;stroke-width:1.0;" width="6" x="15" y="263.6484"/><text fill="#000000" font-family="sans-serif" font-size="14" lengthAdjust="spacing" textLength="55" x="27" y="269.9951">id: UUID</text><rect fill="none" height="6" style="stroke:#C82930;stroke-width:1.0;" width="6" x="15" y="279.9453"/><text fill="#000000" font-family="sans-serif" font-size="14" lengthAdjust="spacing" textLength="92" x="27" y="286.292">status: String</text><line style="stroke:#181818;stroke-width:0.5;" x1="8" x2="124" y1="293.5938" y2="293.5938"/></g><!--MD5=[9bb0bdd047fba1a3c8d48282c35b4537]
class Post--><g id="elem_Post"><rect codeLine="14" fill="#F1F1F1" height="96.8906" id="Post" rx="2.5" ry="2.5" style="stroke:#181818;stroke-width:0.5;" width="129" x="285.5" y="213"/><ellipse cx="330.25" cy="229" fill="#ADD1B2" rx="11" ry="11" style="stroke:#181818;stroke-width:1.0;"/><path d="M333.2188,234.6406 Q332.6406,234.9375 332,235.0781 Q331.3594,235.2344 330.6563,235.2344 Q328.1563,235.2344 326.8281,233.5938 Q325.5156,231.9375 325.5156,228.8125 Q325.5156,225.6875 326.8281,224.0313 Q328.1563,222.375 330.6563,222.375 Q331.3594,222.375 332,222.5313 Q332.6563,222.6875 333.2188,222.9844 L333.2188,225.7031 Q332.5938,225.125 332,224.8594 Q331.4063,224.5781 330.7813,224.5781 Q329.4375,224.5781 328.75,225.6563 Q328.0625,226.7188 328.0625,228.8125 Q328.0625,230.9063 328.75,231.9844 Q329.4375,233.0469 330.7813,233.0469 Q331.4063,233.0469 332,232.7813 Q332.5938,232.5 333.2188,231.9219 L333.2188,234.6406 Z " fill="#000000"/><text fill="#000000" font-family="sans-serif" font-size="14" lengthAdjust="spacing" textLength="31" x="350.75" y="233.8467">Post</text><line style="stroke:#181818;stroke-width:0.5;" x1="286.5" x2="413.5" y1="245" y2="245"/><rect fill="none" height="6" style="stroke:#C82930;stroke-width:1.0;" width="6" x="293.5" y="255.6484"/><text fill="#000000" font-family="sans-serif" font-size="14" lengthAdjust="spacing" textLength="55" x="305.5" y="261.9951">id: UUID</text><rect fill="none" height="6" style="stroke:#C82930;stroke-width:1.0;" width="6" x="293.5" y="271.9453"/><text fill="#000000" font-family="sans-serif" font-size="14" lengthAdjust="spacing" textLength="103" x="305.5" y="278.292">content: String</text><rect fill="none" height="6" style="stroke:#C82930;stroke-width:1.0;" width="6" x="293.5" y="288.2422"/><text fill="#000000" font-family="sans-serif" font-size="14" lengthAdjust="spacing" textLength="92" x="305.5" y="294.5889">imgUrl: String</text><line style="stroke:#181818;stroke-width:0.5;" x1="286.5" x2="413.5" y1="301.8906" y2="301.8906"/></g><!--MD5=[042fa140da40c49659127f611bcff931]
class Comment--><g id="elem_Comment"><rect codeLine="20" fill="#F1F1F1" height="113.1875" id="Comment" rx="2.5" ry="2.5" style="stroke:#181818;stroke-width:0.5;" width="174" x="129" y="387"/><ellipse cx="177.75" cy="403" fill="#ADD1B2" rx="11" ry="11" style="stroke:#181818;stroke-width:1.0;"/><path d="M180.7188,408.6406 Q180.1406,408.9375 179.5,409.0781 Q178.8594,409.2344 178.1563,409.2344 Q175.6563,409.2344 174.3281,407.5938 Q173.0156,405.9375 173.0156,402.8125 Q173.0156,399.6875 174.3281,398.0313 Q175.6563,396.375 178.1563,396.375 Q178.8594,396.375 179.5,396.5313 Q180.1563,396.6875 180.7188,396.9844 L180.7188,399.7031 Q180.0938,399.125 179.5,398.8594 Q178.9063,398.5781 178.2813,398.5781 Q176.9375,398.5781 176.25,399.6563 Q175.5625,400.7188 175.5625,402.8125 Q175.5625,404.9063 176.25,405.9844 Q176.9375,407.0469 178.2813,407.0469 Q178.9063,407.0469 179.5,406.7813 Q180.0938,406.5 180.7188,405.9219 L180.7188,408.6406 Z " fill="#000000"/><text fill="#000000" font-family="sans-serif" font-size="14" lengthAdjust="spacing" textLength="68" x="198.25" y="407.8467">Comment</text><line style="stroke:#181818;stroke-width:0.5;" x1="130" x2="302" y1="419" y2="419"/><rect fill="none" height="6" style="stroke:#C82930;stroke-width:1.0;" width="6" x="137" y="429.6484"/><text fill="#000000" font-family="sans-serif" font-size="14" lengthAdjust="spacing" textLength="55" x="149" y="435.9951">id: UUID</text><rect fill="none" height="6" style="stroke:#C82930;stroke-width:1.0;" width="6" x="137" y="445.9453"/><text fill="#000000" font-family="sans-serif" font-size="14" lengthAdjust="spacing" textLength="103" x="149" y="452.292">content: String</text><rect fill="none" height="6" style="stroke:#C82930;stroke-width:1.0;" width="6" x="137" y="462.2422"/><text fill="#000000" font-family="sans-serif" font-size="14" lengthAdjust="spacing" textLength="143" x="149" y="468.5889">createdAt: DateTime</text><rect fill="none" height="6" style="stroke:#C82930;stroke-width:1.0;" width="6" x="137" y="478.5391"/><text fill="#000000" font-family="sans-serif" font-size="14" lengthAdjust="spacing" textLength="148" x="149" y="484.8857">updatedAt: DateTime</text><line style="stroke:#181818;stroke-width:0.5;" x1="130" x2="302" y1="492.1875" y2="492.1875"/></g><!--MD5=[378e3e2ca7e24a99f4479cd893fbde36]
class Like--><g id="elem_Like"><rect codeLine="27" fill="#F1F1F1" height="80.5938" id="Like" rx="2.5" ry="2.5" style="stroke:#181818;stroke-width:0.5;" width="169" x="359.5" y="403"/><ellipse cx="426.25" cy="419" fill="#ADD1B2" rx="11" ry="11" style="stroke:#181818;stroke-width:1.0;"/><path d="M429.2188,424.6406 Q428.6406,424.9375 428,425.0781 Q427.3594,425.2344 426.6563,425.2344 Q424.1563,425.2344 422.8281,423.5938 Q421.5156,421.9375 421.5156,418.8125 Q421.5156,415.6875 422.8281,414.0313 Q424.1563,412.375 426.6563,412.375 Q427.3594,412.375 428,412.5313 Q428.6563,412.6875 429.2188,412.9844 L429.2188,415.7031 Q428.5938,415.125 428,414.8594 Q427.4063,414.5781 426.7813,414.5781 Q425.4375,414.5781 424.75,415.6563 Q424.0625,416.7188 424.0625,418.8125 Q424.0625,420.9063 424.75,421.9844 Q425.4375,423.0469 426.7813,423.0469 Q427.4063,423.0469 428,422.7813 Q428.5938,422.5 429.2188,421.9219 L429.2188,424.6406 Z " fill="#000000"/><text fill="#000000" font-family="sans-serif" font-size="14" lengthAdjust="spacing" textLength="27" x="446.75" y="423.8467">Like</text><line style="stroke:#181818;stroke-width:0.5;" x1="360.5" x2="527.5" y1="435" y2="435"/><rect fill="none" height="6" style="stroke:#C82930;stroke-width:1.0;" width="6" x="367.5" y="445.6484"/><text fill="#000000" font-family="sans-serif" font-size="14" lengthAdjust="spacing" textLength="55" x="379.5" y="451.9951">id: UUID</text><rect fill="none" height="6" style="stroke:#C82930;stroke-width:1.0;" width="6" x="367.5" y="461.9453"/><text fill="#000000" font-family="sans-serif" font-size="14" lengthAdjust="spacing" textLength="143" x="379.5" y="468.292">createdAt: DateTime</text><line style="stroke:#181818;stroke-width:0.5;" x1="360.5" x2="527.5" y1="475.5938" y2="475.5938"/></g><!--MD5=[cb90de322b018cbf647714665a308163]
class Reply--><g id="elem_Reply"><rect codeLine="32" fill="#F1F1F1" height="96.8906" id="Reply" rx="2.5" ry="2.5" style="stroke:#181818;stroke-width:0.5;" width="174" x="575" y="213"/><ellipse cx="638.75" cy="229" fill="#ADD1B2" rx="11" ry="11" style="stroke:#181818;stroke-width:1.0;"/><path d="M641.7188,234.6406 Q641.1406,234.9375 640.5,235.0781 Q639.8594,235.2344 639.1563,235.2344 Q636.6563,235.2344 635.3281,233.5938 Q634.0156,231.9375 634.0156,228.8125 Q634.0156,225.6875 635.3281,224.0313 Q636.6563,222.375 639.1563,222.375 Q639.8594,222.375 640.5,222.5313 Q641.1563,222.6875 641.7188,222.9844 L641.7188,225.7031 Q641.0938,225.125 640.5,224.8594 Q639.9063,224.5781 639.2813,224.5781 Q637.9375,224.5781 637.25,225.6563 Q636.5625,226.7188 636.5625,228.8125 Q636.5625,230.9063 637.25,231.9844 Q637.9375,233.0469 639.2813,233.0469 Q639.9063,233.0469 640.5,232.7813 Q641.0938,232.5 641.7188,231.9219 L641.7188,234.6406 Z " fill="#000000"/><text fill="#000000" font-family="sans-serif" font-size="14" lengthAdjust="spacing" textLength="38" x="659.25" y="233.8467">Reply</text><line style="stroke:#181818;stroke-width:0.5;" x1="576" x2="748" y1="245" y2="245"/><rect fill="none" height="6" style="stroke:#C82930;stroke-width:1.0;" width="6" x="583" y="255.6484"/><text fill="#000000" font-family="sans-serif" font-size="14" lengthAdjust="spacing" textLength="55" x="595" y="261.9951">id: UUID</text><rect fill="none" height="6" style="stroke:#C82930;stroke-width:1.0;" width="6" x="583" y="271.9453"/><text fill="#000000" font-family="sans-serif" font-size="14" lengthAdjust="spacing" textLength="134" x="595" y="278.292">createAt: DateTime</text><rect fill="none" height="6" style="stroke:#C82930;stroke-width:1.0;" width="6" x="583" y="288.2422"/><text fill="#000000" font-family="sans-serif" font-size="14" lengthAdjust="spacing" textLength="148" x="595" y="294.5889">updatedAt: DateTime</text><line style="stroke:#181818;stroke-width:0.5;" x1="576" x2="748" y1="301.8906" y2="301.8906"/></g><!--MD5=[459e69cb7d6992406639a393570154fc]
class ChatSession--><g id="elem_ChatSession"><rect codeLine="38" fill="#F1F1F1" height="80.5938" id="ChatSession" rx="2.5" ry="2.5" style="stroke:#181818;stroke-width:0.5;" width="185" x="784.5" y="221"/><ellipse cx="829.25" cy="237" fill="#ADD1B2" rx="11" ry="11" style="stroke:#181818;stroke-width:1.0;"/><path d="M832.2188,242.6406 Q831.6406,242.9375 831,243.0781 Q830.3594,243.2344 829.6563,243.2344 Q827.1563,243.2344 825.8281,241.5938 Q824.5156,239.9375 824.5156,236.8125 Q824.5156,233.6875 825.8281,232.0313 Q827.1563,230.375 829.6563,230.375 Q830.3594,230.375 831,230.5313 Q831.6563,230.6875 832.2188,230.9844 L832.2188,233.7031 Q831.5938,233.125 831,232.8594 Q830.4063,232.5781 829.7813,232.5781 Q828.4375,232.5781 827.75,233.6563 Q827.0625,234.7188 827.0625,236.8125 Q827.0625,238.9063 827.75,239.9844 Q828.4375,241.0469 829.7813,241.0469 Q830.4063,241.0469 831,240.7813 Q831.5938,240.5 832.2188,239.9219 L832.2188,242.6406 Z " fill="#000000"/><text fill="#000000" font-family="sans-serif" font-size="14" lengthAdjust="spacing" textLength="87" x="849.75" y="241.8467">ChatSession</text><line style="stroke:#181818;stroke-width:0.5;" x1="785.5" x2="968.5" y1="253" y2="253"/><rect fill="none" height="6" style="stroke:#C82930;stroke-width:1.0;" width="6" x="792.5" y="263.6484"/><text fill="#000000" font-family="sans-serif" font-size="14" lengthAdjust="spacing" textLength="55" x="804.5" y="269.9951">id: UUID</text><rect fill="none" height="6" style="stroke:#C82930;stroke-width:1.0;" width="6" x="792.5" y="279.9453"/><text fill="#000000" font-family="sans-serif" font-size="14" lengthAdjust="spacing" textLength="159" x="804.5" y="286.292">lastMessage: Message</text><line style="stroke:#181818;stroke-width:0.5;" x1="785.5" x2="968.5" y1="293.5938" y2="293.5938"/></g><!--MD5=[bea5b0d46523efab5ea1c1d339f396f0]
class Message--><g id="elem_Message"><rect codeLine="43" fill="#F1F1F1" height="113.1875" id="Message" rx="2.5" ry="2.5" style="stroke:#181818;stroke-width:0.5;" width="163" x="795.5" y="387"/><ellipse cx="841.25" cy="403" fill="#ADD1B2" rx="11" ry="11" style="stroke:#181818;stroke-width:1.0;"/><path d="M844.2188,408.6406 Q843.6406,408.9375 843,409.0781 Q842.3594,409.2344 841.6563,409.2344 Q839.1563,409.2344 837.8281,407.5938 Q836.5156,405.9375 836.5156,402.8125 Q836.5156,399.6875 837.8281,398.0313 Q839.1563,396.375 841.6563,396.375 Q842.3594,396.375 843,396.5313 Q843.6563,396.6875 844.2188,396.9844 L844.2188,399.7031 Q843.5938,399.125 843,398.8594 Q842.4063,398.5781 841.7813,398.5781 Q840.4375,398.5781 839.75,399.6563 Q839.0625,400.7188 839.0625,402.8125 Q839.0625,404.9063 839.75,405.9844 Q840.4375,407.0469 841.7813,407.0469 Q842.4063,407.0469 843,406.7813 Q843.5938,406.5 844.2188,405.9219 L844.2188,408.6406 Z " fill="#000000"/><text fill="#000000" font-family="sans-serif" font-size="14" lengthAdjust="spacing" textLength="63" x="861.75" y="407.8467">Message</text><line style="stroke:#181818;stroke-width:0.5;" x1="796.5" x2="957.5" y1="419" y2="419"/><rect fill="none" height="6" style="stroke:#C82930;stroke-width:1.0;" width="6" x="803.5" y="429.6484"/><text fill="#000000" font-family="sans-serif" font-size="14" lengthAdjust="spacing" textLength="55" x="815.5" y="435.9951">id: UUID</text><rect fill="none" height="6" style="stroke:#C82930;stroke-width:1.0;" width="6" x="803.5" y="445.9453"/><text fill="#000000" font-family="sans-serif" font-size="14" lengthAdjust="spacing" textLength="137" x="815.5" y="452.292">contentType: String</text><rect fill="none" height="6" style="stroke:#C82930;stroke-width:1.0;" width="6" x="803.5" y="462.2422"/><text fill="#000000" font-family="sans-serif" font-size="14" lengthAdjust="spacing" textLength="109" x="815.5" y="468.5889">mediaUrl: String</text><rect fill="none" height="6" style="stroke:#C82930;stroke-width:1.0;" width="6" x="803.5" y="478.5391"/><text fill="#000000" font-family="sans-serif" font-size="14" lengthAdjust="spacing" textLength="103" x="815.5" y="484.8857">content: String</text><line style="stroke:#181818;stroke-width:0.5;" x1="796.5" x2="957.5" y1="492.1875" y2="492.1875"/></g><!--MD5=[91837343f19ad6bb47ed4fe22d7145fa]
class Invitation--><g id="elem_Invitation"><rect codeLine="50" fill="#F1F1F1" height="64.2969" id="Invitation" rx="2.5" ry="2.5" style="stroke:#181818;stroke-width:0.5;" width="183" x="1004.5" y="229.5"/><ellipse cx="1061.25" cy="245.5" fill="#ADD1B2" rx="11" ry="11" style="stroke:#181818;stroke-width:1.0;"/><path d="M1064.2188,251.1406 Q1063.6406,251.4375 1063,251.5781 Q1062.3594,251.7344 1061.6563,251.7344 Q1059.1563,251.7344 1057.8281,250.0938 Q1056.5156,248.4375 1056.5156,245.3125 Q1056.5156,242.1875 1057.8281,240.5313 Q1059.1563,238.875 1061.6563,238.875 Q1062.3594,238.875 1063,239.0313 Q1063.6563,239.1875 1064.2188,239.4844 L1064.2188,242.2031 Q1063.5938,241.625 1063,241.3594 Q1062.4063,241.0781 1061.7813,241.0781 Q1060.4375,241.0781 1059.75,242.1563 Q1059.0625,243.2188 1059.0625,245.3125 Q1059.0625,247.4063 1059.75,248.4844 Q1060.4375,249.5469 1061.7813,249.5469 Q1062.4063,249.5469 1063,249.2813 Q1063.5938,249 1064.2188,248.4219 L1064.2188,251.1406 Z " fill="#000000"/><text fill="#000000" font-family="sans-serif" font-size="14" lengthAdjust="spacing" textLength="61" x="1081.75" y="250.3467">Invitation</text><line style="stroke:#181818;stroke-width:0.5;" x1="1005.5" x2="1186.5" y1="261.5" y2="261.5"/><rect fill="none" height="6" style="stroke:#C82930;stroke-width:1.0;" width="6" x="1012.5" y="272.1484"/><text fill="#000000" font-family="sans-serif" font-size="14" lengthAdjust="spacing" textLength="157" x="1024.5" y="278.4951">status: InvitationStatus</text><line style="stroke:#181818;stroke-width:0.5;" x1="1005.5" x2="1186.5" y1="285.7969" y2="285.7969"/></g><!--MD5=[6a37852ab55f6ef3112e87167cf69d7b]
class InvitationStatus--><g id="elem_InvitationStatus"><rect codeLine="54" fill="#F1F1F1" height="113.1875" id="InvitationStatus" rx="2.5" ry="2.5" style="stroke:#181818;stroke-width:0.5;" width="137" x="591.5" y="15"/><ellipse cx="606.5" cy="31" fill="#EB937F" rx="11" ry="11" style="stroke:#181818;stroke-width:1.0;"/><path d="M610.6094,37 L602.8906,37 L602.8906,24.6094 L610.6094,24.6094 L610.6094,26.7656 L605.3438,26.7656 L605.3438,29.4375 L610.1094,29.4375 L610.1094,31.5938 L605.3438,31.5938 L605.3438,34.8438 L610.6094,34.8438 L610.6094,37 Z " fill="#000000"/><text fill="#000000" font-family="sans-serif" font-size="14" lengthAdjust="spacing" textLength="105" x="620.5" y="35.8467">InvitationStatus</text><line style="stroke:#181818;stroke-width:0.5;" x1="592.5" x2="727.5" y1="47" y2="47"/><text fill="#000000" font-family="sans-serif" font-size="14" lengthAdjust="spacing" textLength="80" x="597.5" y="63.9951">ACCEPTED,</text><text fill="#000000" font-family="sans-serif" font-size="14" lengthAdjust="spacing" textLength="67" x="597.5" y="80.292">PENDING,</text><text fill="#000000" font-family="sans-serif" font-size="14" lengthAdjust="spacing" textLength="74" x="597.5" y="96.5889">REJECTED,</text><text fill="#000000" font-family="sans-serif" font-size="14" lengthAdjust="spacing" textLength="75" x="597.5" y="112.8857">CANCELED</text><line style="stroke:#181818;stroke-width:0.5;" x1="592.5" x2="727.5" y1="120.1875" y2="120.1875"/></g><!--MD5=[77c575690b0287b9077f2f97ff7c450d]
link User to Post--><g id="link_User_Post"><path codeLine="62" d="M427.09,136.05 C419.02,145.84 411.08,156.01 404,166 C393.62,180.65 383.51,197.44 374.89,212.76 " fill="none" id="User-Post" style="stroke:#181818;stroke-width:1.0;"/><text fill="#000000" font-family="sans-serif" font-size="13" lengthAdjust="spacing" textLength="53" x="405" y="179.0669">manage</text><text fill="#000000" font-family="sans-serif" font-size="13" lengthAdjust="spacing" textLength="8" x="411.9317" y="156.4274">1</text><text fill="#000000" font-family="sans-serif" font-size="13" lengthAdjust="spacing" textLength="23" x="353.773" y="201.9352">0..*</text></g><!--MD5=[c97a8161e339f28cae62cf41c8d46539]
link User to Like--><g id="link_User_Like"><path codeLine="63" d="M477.95,136.11 C469.47,212.66 455.48,338.86 448.4,402.77 " fill="none" id="User-Like" style="stroke:#181818;stroke-width:1.0;"/><text fill="#000000" font-family="sans-serif" font-size="13" lengthAdjust="spacing" textLength="53" x="471" y="266.0669">manage</text><text fill="#000000" font-family="sans-serif" font-size="13" lengthAdjust="spacing" textLength="8" x="468.6723" y="156.4943">1</text><text fill="#000000" font-family="sans-serif" font-size="13" lengthAdjust="spacing" textLength="23" x="424.2241" y="391.8934">0..*</text></g><!--MD5=[2dd21c5e4d24a00e804d12dd0c7b0d9f]
link User to Comment--><g id="link_User_Comment"><path codeLine="64" d="M413.9,87.31 C348.87,105.03 256.4,141.73 213,213 C181.19,265.24 188.6,337.35 199.64,386.71 " fill="none" id="User-Comment" style="stroke:#181818;stroke-width:1.0;"/><text fill="#000000" font-family="sans-serif" font-size="13" lengthAdjust="spacing" textLength="53" x="214" y="266.0669">manage</text><text fill="#000000" font-family="sans-serif" font-size="13" lengthAdjust="spacing" textLength="8" x="398.1553" y="101.7626">1</text><text fill="#000000" font-family="sans-serif" font-size="13" lengthAdjust="spacing" textLength="23" x="169.0008" y="375.9382">0..*</text></g><!--MD5=[32ba4abc7bed0fab43cb0e960d259acb]
link User to Reply--><g id="link_User_Reply"><path codeLine="65" d="M544.92,136.15 C568.59,161.29 595.32,189.67 617.25,212.97 " fill="none" id="User-Reply" style="stroke:#181818;stroke-width:1.0;"/><text fill="#000000" font-family="sans-serif" font-size="13" lengthAdjust="spacing" textLength="53" x="586" y="179.0669">manage</text><text fill="#000000" font-family="sans-serif" font-size="13" lengthAdjust="spacing" textLength="8" x="543.3857" y="156.5389">1</text><text fill="#000000" font-family="sans-serif" font-size="13" lengthAdjust="spacing" textLength="23" x="585.9883" y="201.8253">0..*</text></g><!--MD5=[5c250862c965c30f605c5bfc4cb43e1d]
link User to ChatSession--><g id="link_User_ChatSession"><path codeLine="66" d="M556.18,125.48 C562.1,129.21 568.09,132.77 574,136 C579.04,138.76 760.69,210.8 766,213 C772.2,215.57 778.58,218.24 785,220.94 " fill="none" id="User-ChatSession" style="stroke:#181818;stroke-width:1.0;"/><text fill="#000000" font-family="sans-serif" font-size="13" lengthAdjust="spacing" textLength="53" x="688" y="179.0669">manage</text><text fill="#000000" font-family="sans-serif" font-size="13" lengthAdjust="spacing" textLength="8" x="563.9329" y="127.322">2</text><text fill="#000000" font-family="sans-serif" font-size="13" lengthAdjust="spacing" textLength="23" x="753.4289" y="214.0492">0..*</text></g><!--MD5=[e3a5b12b2553f6db9271cf2e45cddc13]
link User to Invitation--><g id="link_User_Invitation"><path codeLine="67" d="M556.01,127.2 C561.92,130.49 567.95,133.48 574,136 C647.26,166.48 671.96,151.61 750,166 C855.61,185.47 884.52,180.92 987,213 C1001.48,217.53 1016.63,223.38 1030.87,229.41 " fill="none" id="User-Invitation" style="stroke:#181818;stroke-width:1.0;"/><text fill="#000000" font-family="sans-serif" font-size="13" lengthAdjust="spacing" textLength="53" x="859" y="179.0669">manage</text><text fill="#000000" font-family="sans-serif" font-size="13" lengthAdjust="spacing" textLength="8" x="564.2142" y="146.1602">2</text><text fill="#000000" font-family="sans-serif" font-size="13" lengthAdjust="spacing" textLength="23" x="992.0651" y="218.2945">0..*</text></g><!--MD5=[fa476b3e01a0a36a0e6cee14f6dea68f]
link User to Friendship--><g id="link_User_Friendship"><path codeLine="68" d="M413.81,73.41 C332.94,77.97 200.94,96.57 114,166 C96.6,179.89 84.93,201.77 77.45,220.97 " fill="none" id="User-Friendship" style="stroke:#181818;stroke-width:1.0;"/><text fill="#000000" font-family="sans-serif" font-size="13" lengthAdjust="spacing" textLength="53" x="115" y="179.0669">manage</text><text fill="#000000" font-family="sans-serif" font-size="13" lengthAdjust="spacing" textLength="8" x="398.056" y="69.8823">2</text><text fill="#000000" font-family="sans-serif" font-size="13" lengthAdjust="spacing" textLength="23" x="54.4414" y="209.8281">0..*</text></g><!--MD5=[2d11a37f4899941ac5ffe64529a493f7]
reverse link ChatSession to Message--><g id="link_ChatSession_Message"><path codeLine="69" d="M877,315.1 C877,337.59 877,363.87 877,386.7 " fill="none" id="ChatSession-backto-Message" style="stroke:#181818;stroke-width:1.0;"/><polygon fill="#181818" points="877,302,873,308,877,314,881,308,877,302" style="stroke:#181818;stroke-width:1.0;"/><text fill="#000000" font-family="sans-serif" font-size="13" lengthAdjust="spacing" textLength="23" x="878" y="353.0669">has</text><text fill="#000000" font-family="sans-serif" font-size="13" lengthAdjust="spacing" textLength="8" x="868.3625" y="321.7599">1</text><text fill="#000000" font-family="sans-serif" font-size="13" lengthAdjust="spacing" textLength="23" x="848.3547" y="375.927">1..*</text></g><!--MD5=[0f845e3affdb6f2294b75e9aa318aa46]
reverse link Post to Like--><g id="link_Post_Like"><path codeLine="70" d="M381.13,322.12 C394.97,348.61 410.88,379.08 423.23,402.73 " fill="none" id="Post-backto-Like" style="stroke:#181818;stroke-width:1.0;"/><polygon fill="#181818" points="374.94,310.26,374.1724,317.4301,380.4958,320.8964,381.2634,313.7263,374.94,310.26" style="stroke:#181818;stroke-width:1.0;"/><text fill="#000000" font-family="sans-serif" font-size="13" lengthAdjust="spacing" textLength="23" x="398" y="353.0669">has</text><text fill="#000000" font-family="sans-serif" font-size="13" lengthAdjust="spacing" textLength="8" x="369.7538" y="329.9031">1</text><text fill="#000000" font-family="sans-serif" font-size="13" lengthAdjust="spacing" textLength="23" x="394.8853" y="391.8468">0..*</text></g><!--MD5=[65e42cb5568afcbba8f3b58fb3575f9c]
reverse link Post to Comment--><g id="link_Post_Comment"><path codeLine="71" d="M306.63,320.76 C290.84,341.96 273.05,365.87 257.43,386.85 " fill="none" id="Post-backto-Comment" style="stroke:#181818;stroke-width:1.0;"/><polygon fill="#181818" points="314.44,310.26,307.6474,312.6809,307.2696,319.8821,314.0621,317.4612,314.44,310.26" style="stroke:#181818;stroke-width:1.0;"/><text fill="#000000" font-family="sans-serif" font-size="13" lengthAdjust="spacing" textLength="23" x="293" y="353.0669">has</text><text fill="#000000" font-family="sans-serif" font-size="13" lengthAdjust="spacing" textLength="8" x="301.1241" y="329.9031">1</text><text fill="#000000" font-family="sans-serif" font-size="13" lengthAdjust="spacing" textLength="23" x="238.0777" y="376.0953">0..*</text></g><!--MD5=[b12f79318fc0296261ef642c1a030d31]
@startuml
class User {
    -id: UUID
    -firstName: String
    -lastName: String
    -email: String
    -password: String
}

class Friendship {
    -id: UUID
    -status: String
}

class Post {
    -id: UUID
    -content: String
    -imgUrl: String
}

class Comment {
    -id: UUID
    -content: String
    -createdAt: DateTime
    -updatedAt: DateTime
}

class Like {
    -id: UUID
    -createdAt: DateTime
}

class Reply {
    -id: UUID
    -createAt: DateTime
    -updatedAt: DateTime
}

class ChatSession {
    -id: UUID
    -lastMessage: Message
}

class Message {
    -id: UUID
    -contentType: String
    -mediaUrl: String
    -content: String
}

class Invitation {
    -status: InvitationStatus
}

enum InvitationStatus {
    ACCEPTED,
    PENDING,
    REJECTED,
    CANCELED
}


User "1" - - "0..*" Post : "manage"
User "1" - - "0..*" Like : "manage"
User "1" - - "0..* " Comment : "manage"
User "1" - - "0..*" Reply : "manage"
User "2" - - "0..*" ChatSession : "manage"
User "2" - - "0..*" Invitation : "manage"
User "2" - - "0..*" Friendship : "manage" 
ChatSession "1" *- - "1..* " Message : "has"
Post "1" *- - "0..*" Like : "has"
Post "1" *- - "0..*" Comment : "has"
@enduml

PlantUML version 1.2022.7(Mon Aug 22 17:01:30 UTC 2022)
(GPL source distribution)
Java Runtime: OpenJDK Runtime Environment
JVM: OpenJDK 64-Bit Server VM
Default Encoding: UTF-8
Language: en
Country: null
--></g></svg>